<svg xmlns="http://www.w3.org/2000/svg" width="21.625" height="26.615" viewBox="0 0 21.625 26.615">
  <path id="Icon_metro-bin" data-name="Icon metro-bin" d="M6.162,10.245V26.88a1.668,1.668,0,0,0,1.663,1.663H22.8A1.668,1.668,0,0,0,24.46,26.88V10.245H6.162Zm4.99,14.971H9.489V13.572h1.663Zm3.327,0H12.816V13.572h1.663Zm3.327,0H16.143V13.572h1.663Zm3.327,0H19.47V13.572h1.663ZM24.876,5.255H19.47V3.176a1.251,1.251,0,0,0-1.248-1.248H12.4a1.251,1.251,0,0,0-1.248,1.248V5.255H5.746A1.251,1.251,0,0,0,4.5,6.5V8.582H26.123V6.5A1.251,1.251,0,0,0,24.876,5.255Zm-7.07,0h-4.99V3.612h4.99V5.255Z" transform="translate(-4.499 -1.928)"/>
</svg>
